P3
6 3
255
198 54 60 198 54 60 198 54 60 198 54 60 198 54 60 198 54 60
12 64 118 12 64 118 12 64 118 12 64 118 12 64 118 12 64 118
255 255 255 255 255 255 255 255 255 255 255 255 255 255 255 255 255 255